<?xml version="1.0" standalone="no"?>
<!DOCTYPE svg PUBLIC "-//W3C//DTD SVG 20010904//EN"
 "http://www.w3.org/TR/2001/REC-SVG-20010904/DTD/svg10.dtd">
<svg version="1.0" xmlns="http://www.w3.org/2000/svg"
 width="700.000000pt" height="700.000000pt" viewBox="0 0 700.000000 700.000000"
 preserveAspectRatio="xMidYMid meet">
<metadata>
Created by potrace 1.14, written by Peter Selinger 2001-2017
</metadata>
<g transform="translate(0.000000,700.000000) scale(0.100000,-0.100000)"
fill="#000000" stroke="none">
<path d="M0 3500 l0 -3500 3500 0 3500 0 0 3500 0 3500 -3500 0 -3500 0 0
-3500z m3031 1175 c238 -256 436 -465 439 -465 3 0 197 209 430 465 l425 464
48 1 47 0 0 -1025 0 -1025 -140 0 -140 0 -2 738 -3 738 -310 -333 -310 -332
-45 2 -45 2 -315 328 -315 328 -6 -988 c-6 -1080 -4 -1045 -66 -1204 -56 -145
-164 -275 -301 -364 -80 -51 -268 -145 -292 -145 -9 0 -41 52 -83 133 -67 131
-67 132 -45 141 94 37 235 113 295 160 79 62 129 125 171 212 l27 59 6 1220
c4 671 7 1250 8 1288 l1 67 44 0 44 0 433 -465z"/>
</g>
</svg>
